<?xml version="1.0" encoding="UTF-8" standalone="no"?>
<svg
   xmlns:dc="http://purl.org/dc/elements/1.1/"
   xmlns:cc="http://creativecommons.org/ns#"
   xmlns:rdf="http://www.w3.org/1999/02/22-rdf-syntax-ns#"
   xmlns:svg="http://www.w3.org/2000/svg"
   xmlns="http://www.w3.org/2000/svg"
   xmlns:xlink="http://www.w3.org/1999/xlink"
   xmlns:sodipodi="http://sodipodi.sourceforge.net/DTD/sodipodi-0.dtd"
   xmlns:inkscape="http://www.inkscape.org/namespaces/inkscape"
   sodipodi:docname="icon.svg"
   inkscape:version="0.48.4 r9939"
   width="256"
   version="1.0"
   id="svg2"
   height="256"
   inkscape:export-filename="C:\Users\frant\Development\unity\unity-samples\trunk\Scavengers\Assets\_tmp\launcher_icon_96x96.png"
   inkscape:export-xdpi="90"
   inkscape:export-ydpi="90">
  <sodipodi:namedview
     pagecolor="#ffffff"
     bordercolor="#666666"
     borderopacity="1"
     objecttolerance="10"
     gridtolerance="10"
     guidetolerance="10"
     inkscape:pageopacity="0"
     inkscape:pageshadow="2"
     inkscape:window-width="1366"
     inkscape:window-height="705"
     id="namedview13"
     showgrid="false"
     inkscape:zoom="4.0715207"
     inkscape:cx="103.08083"
     inkscape:cy="124.80717"
     inkscape:window-x="-8"
     inkscape:window-y="-8"
     inkscape:window-maximized="1"
     inkscape:current-layer="svg2" />
  <metadata
     id="metadata15">
    <rdf:RDF>
      <cc:Work
         rdf:about="">
        <dc:format>image/svg+xml</dc:format>
        <dc:type
           rdf:resource="http://purl.org/dc/dcmitype/StillImage" />
        <dc:title />
      </cc:Work>
    </rdf:RDF>
  </metadata>
  <defs
     id="defs4">
    <linearGradient
       inkscape:collect="always"
       id="linearGradient11170">
      <stop
         style="stop-color:#000000;stop-opacity:1;"
         offset="0"
         id="stop11172" />
      <stop
         style="stop-color:#000000;stop-opacity:0;"
         offset="1"
         id="stop11174" />
    </linearGradient>
    <linearGradient
       id="linearGradient2555">
      <stop
         style="stop-color: rgb(255, 255, 255); stop-opacity: 1;"
         offset="0"
         id="stop2557" />
      <stop
         style="stop-color: rgb(255, 255, 255); stop-opacity: 0;"
         offset="1"
         id="stop2559" />
    </linearGradient>
    <linearGradient
       y2="425.39993"
       y1="274.711"
       xlink:href="#linearGradient2555"
       x2="-395.84943"
       x1="-344.15295"
       id="linearGradient2449"
       gradientUnits="userSpaceOnUse"
       gradientTransform="matrix(-0.5914583,0,0,0.5914584,210.0216,142.2324)" />
    <linearGradient
       y2="425.39993"
       x2="-395.84943"
       y1="274.711"
       x1="-344.15295"
       gradientTransform="matrix(-0.5914583,0,0,0.5914584,210.0216,142.2324)"
       gradientUnits="userSpaceOnUse"
       id="linearGradient4176"
       xlink:href="#linearGradient2555"
       inkscape:collect="always" />
    <linearGradient
       inkscape:collect="always"
       xlink:href="#linearGradient11170"
       id="linearGradient11176"
       x1="133.83759"
       y1="141.24197"
       x2="192.63603"
       y2="156.99696"
       gradientUnits="userSpaceOnUse" />
    <clipPath
       clipPathUnits="userSpaceOnUse"
       id="clipPath11188">
      <g
         id="g11190"
         transform="matrix(0.408497,0,0,0.40852881,-76.919233,-54.344378)">
        <rect
           height="234.98955"
           id="rect11192"
           rx="35.487503"
           ry="35.487503"
           style="fill:#1d8cb5;fill-opacity:1;fill-rule:evenodd;stroke:none"
           transform="scale(-1,1)"
           width="235.00784"
           x="-619.14587"
           y="328.84921" />
        <path
           d="m 557.05665,338.89518 -110.82944,0 c -29.33688,0 -52.95465,23.80974 -52.95465,53.38507 l 0,108.12736 c 0.9496,23.08605 4.60229,8.49154 11.55502,-17.07471 8.08056,-29.71315 34.39648,-55.68287 66.44461,-75.1457 24.46133,-14.85525 51.84109,-24.34125 101.67955,-25.24367 28.26482,-0.51176 25.7695,-36.68291 -15.89509,-44.04835 z"
           id="path11194"
           style="opacity:0.7811159;fill:url(#linearGradient11200);fill-opacity:1;fill-rule:evenodd;stroke:none"
           inkscape:connector-curvature="0" />
        <text
           id="text11196"
           style="font-size:89.64079285px;font-style:normal;font-variant:normal;font-weight:normal;font-stretch:normal;line-height:125%;fill:#ffffff;fill-opacity:1;stroke:none;font-family:Arial;-inkscape-font-specification:Arial"
           transform="scale(0.87692359,1.1403502)"
           x="475.63913"
           xml:space="preserve"
           y="461.13617"
           sodipodi:linespacing="125%"><tspan
             id="tspan11198"
             style="font-size:199.20176697px;font-style:normal;font-variant:normal;font-weight:normal;font-stretch:normal;text-align:start;line-height:125%;writing-mode:lr-tb;text-anchor:start;fill:#ffffff;fill-opacity:1;font-family:Arial Black;-inkscape-font-specification:'Arial Black,'"
             x="475.63913"
             y="461.13617" /></text>
      </g>
    </clipPath>
    <linearGradient
       inkscape:collect="always"
       xlink:href="#linearGradient2555"
       id="linearGradient11200"
       gradientUnits="userSpaceOnUse"
       gradientTransform="matrix(-0.5914583,0,0,0.5914584,210.0216,142.2324)"
       x1="-344.15295"
       y1="274.711"
       x2="-395.84943"
       y2="425.39993" />
    <clipPath
       clipPathUnits="userSpaceOnUse"
       id="clipPath11202">
      <g
         id="g11204"
         transform="matrix(0.408497,0,0,0.40852881,-76.919233,-54.344378)">
        <rect
           height="234.98955"
           id="rect11206"
           rx="35.487503"
           ry="35.487503"
           style="fill:#1d8cb5;fill-opacity:1;fill-rule:evenodd;stroke:none"
           transform="scale(-1,1)"
           width="235.00784"
           x="-619.14587"
           y="328.84921" />
        <path
           d="m 557.05665,338.89518 -110.82944,0 c -29.33688,0 -52.95465,23.80974 -52.95465,53.38507 l 0,108.12736 c 0.9496,23.08605 4.60229,8.49154 11.55502,-17.07471 8.08056,-29.71315 34.39648,-55.68287 66.44461,-75.1457 24.46133,-14.85525 51.84109,-24.34125 101.67955,-25.24367 28.26482,-0.51176 25.7695,-36.68291 -15.89509,-44.04835 z"
           id="path11208"
           style="opacity:0.7811159;fill:url(#linearGradient11214);fill-opacity:1;fill-rule:evenodd;stroke:none"
           inkscape:connector-curvature="0" />
        <text
           id="text11210"
           style="font-size:89.64079285px;font-style:normal;font-variant:normal;font-weight:normal;font-stretch:normal;line-height:125%;fill:#ffffff;fill-opacity:1;stroke:none;font-family:Arial;-inkscape-font-specification:Arial"
           transform="scale(0.87692359,1.1403502)"
           x="475.63913"
           xml:space="preserve"
           y="461.13617"
           sodipodi:linespacing="125%"><tspan
             id="tspan11212"
             style="font-size:199.20176697px;font-style:normal;font-variant:normal;font-weight:normal;font-stretch:normal;text-align:start;line-height:125%;writing-mode:lr-tb;text-anchor:start;fill:#ffffff;fill-opacity:1;font-family:Arial Black;-inkscape-font-specification:'Arial Black,'"
             x="475.63913"
             y="461.13617" /></text>
      </g>
    </clipPath>
    <linearGradient
       inkscape:collect="always"
       xlink:href="#linearGradient2555"
       id="linearGradient11214"
       gradientUnits="userSpaceOnUse"
       gradientTransform="matrix(-0.5914583,0,0,0.5914584,210.0216,142.2324)"
       x1="-344.15295"
       y1="274.711"
       x2="-395.84943"
       y2="425.39993" />
    <clipPath
       clipPathUnits="userSpaceOnUse"
       id="clipPath11216">
      <g
         id="g11218"
         transform="matrix(0.408497,0,0,0.40852881,-76.919233,-54.344378)">
        <rect
           height="234.98955"
           id="rect11220"
           rx="35.487503"
           ry="35.487503"
           style="fill:#1d8cb5;fill-opacity:1;fill-rule:evenodd;stroke:none"
           transform="scale(-1,1)"
           width="235.00784"
           x="-619.14587"
           y="328.84921" />
        <path
           d="m 557.05665,338.89518 -110.82944,0 c -29.33688,0 -52.95465,23.80974 -52.95465,53.38507 l 0,108.12736 c 0.9496,23.08605 4.60229,8.49154 11.55502,-17.07471 8.08056,-29.71315 34.39648,-55.68287 66.44461,-75.1457 24.46133,-14.85525 51.84109,-24.34125 101.67955,-25.24367 28.26482,-0.51176 25.7695,-36.68291 -15.89509,-44.04835 z"
           id="path11222"
           style="opacity:0.7811159;fill:url(#linearGradient11228);fill-opacity:1;fill-rule:evenodd;stroke:none"
           inkscape:connector-curvature="0" />
        <text
           id="text11224"
           style="font-size:89.64079285px;font-style:normal;font-variant:normal;font-weight:normal;font-stretch:normal;line-height:125%;fill:#ffffff;fill-opacity:1;stroke:none;font-family:Arial;-inkscape-font-specification:Arial"
           transform="scale(0.87692359,1.1403502)"
           x="475.63913"
           xml:space="preserve"
           y="461.13617"
           sodipodi:linespacing="125%"><tspan
             id="tspan11226"
             style="font-size:199.20176697px;font-style:normal;font-variant:normal;font-weight:normal;font-stretch:normal;text-align:start;line-height:125%;writing-mode:lr-tb;text-anchor:start;fill:#ffffff;fill-opacity:1;font-family:Arial Black;-inkscape-font-specification:'Arial Black,'"
             x="475.63913"
             y="461.13617" /></text>
      </g>
    </clipPath>
    <linearGradient
       inkscape:collect="always"
       xlink:href="#linearGradient2555"
       id="linearGradient11228"
       gradientUnits="userSpaceOnUse"
       gradientTransform="matrix(-0.5914583,0,0,0.5914584,210.0216,142.2324)"
       x1="-344.15295"
       y1="274.711"
       x2="-395.84943"
       y2="425.39993" />
    <clipPath
       clipPathUnits="userSpaceOnUse"
       id="clipPath11230">
      <g
         id="g11232"
         transform="matrix(0.408497,0,0,0.40852881,-76.919233,-54.344378)">
        <rect
           height="234.98955"
           id="rect11234"
           rx="35.487503"
           ry="35.487503"
           style="fill:#1d8cb5;fill-opacity:1;fill-rule:evenodd;stroke:none"
           transform="scale(-1,1)"
           width="235.00784"
           x="-619.14587"
           y="328.84921" />
        <path
           d="m 557.05665,338.89518 -110.82944,0 c -29.33688,0 -52.95465,23.80974 -52.95465,53.38507 l 0,108.12736 c 0.9496,23.08605 4.60229,8.49154 11.55502,-17.07471 8.08056,-29.71315 34.39648,-55.68287 66.44461,-75.1457 24.46133,-14.85525 51.84109,-24.34125 101.67955,-25.24367 28.26482,-0.51176 25.7695,-36.68291 -15.89509,-44.04835 z"
           id="path11236"
           style="opacity:0.7811159;fill:url(#linearGradient11242);fill-opacity:1;fill-rule:evenodd;stroke:none"
           inkscape:connector-curvature="0" />
        <text
           id="text11238"
           style="font-size:89.64079285px;font-style:normal;font-variant:normal;font-weight:normal;font-stretch:normal;line-height:125%;fill:#ffffff;fill-opacity:1;stroke:none;font-family:Arial;-inkscape-font-specification:Arial"
           transform="scale(0.87692359,1.1403502)"
           x="475.63913"
           xml:space="preserve"
           y="461.13617"
           sodipodi:linespacing="125%"><tspan
             id="tspan11240"
             style="font-size:199.20176697px;font-style:normal;font-variant:normal;font-weight:normal;font-stretch:normal;text-align:start;line-height:125%;writing-mode:lr-tb;text-anchor:start;fill:#ffffff;fill-opacity:1;font-family:Arial Black;-inkscape-font-specification:'Arial Black,'"
             x="475.63913"
             y="461.13617" /></text>
      </g>
    </clipPath>
    <linearGradient
       inkscape:collect="always"
       xlink:href="#linearGradient2555"
       id="linearGradient11242"
       gradientUnits="userSpaceOnUse"
       gradientTransform="matrix(-0.5914583,0,0,0.5914584,210.0216,142.2324)"
       x1="-344.15295"
       y1="274.711"
       x2="-395.84943"
       y2="425.39993" />
    <clipPath
       clipPathUnits="userSpaceOnUse"
       id="clipPath11244">
      <g
         id="g11246"
         transform="matrix(0.408497,0,0,0.40852881,-76.919233,-54.344378)">
        <rect
           height="234.98955"
           id="rect11248"
           rx="35.487503"
           ry="35.487503"
           style="fill:#1d8cb5;fill-opacity:1;fill-rule:evenodd;stroke:none"
           transform="scale(-1,1)"
           width="235.00784"
           x="-619.14587"
           y="328.84921" />
        <path
           d="m 557.05665,338.89518 -110.82944,0 c -29.33688,0 -52.95465,23.80974 -52.95465,53.38507 l 0,108.12736 c 0.9496,23.08605 4.60229,8.49154 11.55502,-17.07471 8.08056,-29.71315 34.39648,-55.68287 66.44461,-75.1457 24.46133,-14.85525 51.84109,-24.34125 101.67955,-25.24367 28.26482,-0.51176 25.7695,-36.68291 -15.89509,-44.04835 z"
           id="path11250"
           style="opacity:0.7811159;fill:url(#linearGradient11256);fill-opacity:1;fill-rule:evenodd;stroke:none"
           inkscape:connector-curvature="0" />
        <text
           id="text11252"
           style="font-size:89.64079285px;font-style:normal;font-variant:normal;font-weight:normal;font-stretch:normal;line-height:125%;fill:#ffffff;fill-opacity:1;stroke:none;font-family:Arial;-inkscape-font-specification:Arial"
           transform="scale(0.87692359,1.1403502)"
           x="475.63913"
           xml:space="preserve"
           y="461.13617"
           sodipodi:linespacing="125%"><tspan
             id="tspan11254"
             style="font-size:199.20176697px;font-style:normal;font-variant:normal;font-weight:normal;font-stretch:normal;text-align:start;line-height:125%;writing-mode:lr-tb;text-anchor:start;fill:#ffffff;fill-opacity:1;font-family:Arial Black;-inkscape-font-specification:'Arial Black,'"
             x="475.63913"
             y="461.13617" /></text>
      </g>
    </clipPath>
    <linearGradient
       inkscape:collect="always"
       xlink:href="#linearGradient2555"
       id="linearGradient11256"
       gradientUnits="userSpaceOnUse"
       gradientTransform="matrix(-0.5914583,0,0,0.5914584,210.0216,142.2324)"
       x1="-344.15295"
       y1="274.711"
       x2="-395.84943"
       y2="425.39993" />
    <clipPath
       clipPathUnits="userSpaceOnUse"
       id="clipPath11258">
      <g
         id="g11260"
         transform="matrix(0.408497,0,0,0.40852881,-76.919233,-54.344378)">
        <rect
           height="234.98955"
           id="rect11262"
           rx="35.487503"
           ry="35.487503"
           style="fill:#1d8cb5;fill-opacity:1;fill-rule:evenodd;stroke:none"
           transform="scale(-1,1)"
           width="235.00784"
           x="-619.14587"
           y="328.84921" />
        <path
           d="m 557.05665,338.89518 -110.82944,0 c -29.33688,0 -52.95465,23.80974 -52.95465,53.38507 l 0,108.12736 c 0.9496,23.08605 4.60229,8.49154 11.55502,-17.07471 8.08056,-29.71315 34.39648,-55.68287 66.44461,-75.1457 24.46133,-14.85525 51.84109,-24.34125 101.67955,-25.24367 28.26482,-0.51176 25.7695,-36.68291 -15.89509,-44.04835 z"
           id="path11264"
           style="opacity:0.7811159;fill:url(#linearGradient11270);fill-opacity:1;fill-rule:evenodd;stroke:none"
           inkscape:connector-curvature="0" />
        <text
           id="text11266"
           style="font-size:89.64079285px;font-style:normal;font-variant:normal;font-weight:normal;font-stretch:normal;line-height:125%;fill:#ffffff;fill-opacity:1;stroke:none;font-family:Arial;-inkscape-font-specification:Arial"
           transform="scale(0.87692359,1.1403502)"
           x="475.63913"
           xml:space="preserve"
           y="461.13617"
           sodipodi:linespacing="125%"><tspan
             id="tspan11268"
             style="font-size:199.20176697px;font-style:normal;font-variant:normal;font-weight:normal;font-stretch:normal;text-align:start;line-height:125%;writing-mode:lr-tb;text-anchor:start;fill:#ffffff;fill-opacity:1;font-family:Arial Black;-inkscape-font-specification:'Arial Black,'"
             x="475.63913"
             y="461.13617" /></text>
      </g>
    </clipPath>
    <linearGradient
       inkscape:collect="always"
       xlink:href="#linearGradient2555"
       id="linearGradient11270"
       gradientUnits="userSpaceOnUse"
       gradientTransform="matrix(-0.5914583,0,0,0.5914584,210.0216,142.2324)"
       x1="-344.15295"
       y1="274.711"
       x2="-395.84943"
       y2="425.39993" />
    <clipPath
       clipPathUnits="userSpaceOnUse"
       id="clipPath11272">
      <g
         id="g11274"
         transform="matrix(0.408497,0,0,0.40852881,-76.919233,-54.344378)">
        <rect
           height="234.98955"
           id="rect11276"
           rx="35.487503"
           ry="35.487503"
           style="fill:#1d8cb5;fill-opacity:1;fill-rule:evenodd;stroke:none"
           transform="scale(-1,1)"
           width="235.00784"
           x="-619.14587"
           y="328.84921" />
        <path
           d="m 557.05665,338.89518 -110.82944,0 c -29.33688,0 -52.95465,23.80974 -52.95465,53.38507 l 0,108.12736 c 0.9496,23.08605 4.60229,8.49154 11.55502,-17.07471 8.08056,-29.71315 34.39648,-55.68287 66.44461,-75.1457 24.46133,-14.85525 51.84109,-24.34125 101.67955,-25.24367 28.26482,-0.51176 25.7695,-36.68291 -15.89509,-44.04835 z"
           id="path11278"
           style="opacity:0.7811159;fill:url(#linearGradient11284);fill-opacity:1;fill-rule:evenodd;stroke:none"
           inkscape:connector-curvature="0" />
        <text
           id="text11280"
           style="font-size:89.64079285px;font-style:normal;font-variant:normal;font-weight:normal;font-stretch:normal;line-height:125%;fill:#ffffff;fill-opacity:1;stroke:none;font-family:Arial;-inkscape-font-specification:Arial"
           transform="scale(0.87692359,1.1403502)"
           x="475.63913"
           xml:space="preserve"
           y="461.13617"
           sodipodi:linespacing="125%"><tspan
             id="tspan11282"
             style="font-size:199.20176697px;font-style:normal;font-variant:normal;font-weight:normal;font-stretch:normal;text-align:start;line-height:125%;writing-mode:lr-tb;text-anchor:start;fill:#ffffff;fill-opacity:1;font-family:Arial Black;-inkscape-font-specification:'Arial Black,'"
             x="475.63913"
             y="461.13617" /></text>
      </g>
    </clipPath>
    <linearGradient
       inkscape:collect="always"
       xlink:href="#linearGradient2555"
       id="linearGradient11284"
       gradientUnits="userSpaceOnUse"
       gradientTransform="matrix(-0.5914583,0,0,0.5914584,210.0216,142.2324)"
       x1="-344.15295"
       y1="274.711"
       x2="-395.84943"
       y2="425.39993" />
    <clipPath
       clipPathUnits="userSpaceOnUse"
       id="clipPath11286">
      <g
         id="g11288"
         transform="matrix(0.408497,0,0,0.40852881,-76.919233,-54.344378)">
        <rect
           height="234.98955"
           id="rect11290"
           rx="35.487503"
           ry="35.487503"
           style="fill:#1d8cb5;fill-opacity:1;fill-rule:evenodd;stroke:none"
           transform="scale(-1,1)"
           width="235.00784"
           x="-619.14587"
           y="328.84921" />
        <path
           d="m 557.05665,338.89518 -110.82944,0 c -29.33688,0 -52.95465,23.80974 -52.95465,53.38507 l 0,108.12736 c 0.9496,23.08605 4.60229,8.49154 11.55502,-17.07471 8.08056,-29.71315 34.39648,-55.68287 66.44461,-75.1457 24.46133,-14.85525 51.84109,-24.34125 101.67955,-25.24367 28.26482,-0.51176 25.7695,-36.68291 -15.89509,-44.04835 z"
           id="path11292"
           style="opacity:0.7811159;fill:url(#linearGradient11298);fill-opacity:1;fill-rule:evenodd;stroke:none"
           inkscape:connector-curvature="0" />
        <text
           id="text11294"
           style="font-size:89.64079285px;font-style:normal;font-variant:normal;font-weight:normal;font-stretch:normal;line-height:125%;fill:#ffffff;fill-opacity:1;stroke:none;font-family:Arial;-inkscape-font-specification:Arial"
           transform="scale(0.87692359,1.1403502)"
           x="475.63913"
           xml:space="preserve"
           y="461.13617"
           sodipodi:linespacing="125%"><tspan
             id="tspan11296"
             style="font-size:199.20176697px;font-style:normal;font-variant:normal;font-weight:normal;font-stretch:normal;text-align:start;line-height:125%;writing-mode:lr-tb;text-anchor:start;fill:#ffffff;fill-opacity:1;font-family:Arial Black;-inkscape-font-specification:'Arial Black,'"
             x="475.63913"
             y="461.13617" /></text>
      </g>
    </clipPath>
    <linearGradient
       inkscape:collect="always"
       xlink:href="#linearGradient2555"
       id="linearGradient11298"
       gradientUnits="userSpaceOnUse"
       gradientTransform="matrix(-0.5914583,0,0,0.5914584,210.0216,142.2324)"
       x1="-344.15295"
       y1="274.711"
       x2="-395.84943"
       y2="425.39993" />
    <clipPath
       clipPathUnits="userSpaceOnUse"
       id="clipPath11300">
      <g
         id="g11302"
         transform="matrix(0.408497,0,0,0.40852881,-76.919233,-54.344378)">
        <rect
           height="234.98955"
           id="rect11304"
           rx="35.487503"
           ry="35.487503"
           style="fill:#1d8cb5;fill-opacity:1;fill-rule:evenodd;stroke:none"
           transform="scale(-1,1)"
           width="235.00784"
           x="-619.14587"
           y="328.84921" />
        <path
           d="m 557.05665,338.89518 -110.82944,0 c -29.33688,0 -52.95465,23.80974 -52.95465,53.38507 l 0,108.12736 c 0.9496,23.08605 4.60229,8.49154 11.55502,-17.07471 8.08056,-29.71315 34.39648,-55.68287 66.44461,-75.1457 24.46133,-14.85525 51.84109,-24.34125 101.67955,-25.24367 28.26482,-0.51176 25.7695,-36.68291 -15.89509,-44.04835 z"
           id="path11306"
           style="opacity:0.7811159;fill:url(#linearGradient11312);fill-opacity:1;fill-rule:evenodd;stroke:none"
           inkscape:connector-curvature="0" />
        <text
           id="text11308"
           style="font-size:89.64079285px;font-style:normal;font-variant:normal;font-weight:normal;font-stretch:normal;line-height:125%;fill:#ffffff;fill-opacity:1;stroke:none;font-family:Arial;-inkscape-font-specification:Arial"
           transform="scale(0.87692359,1.1403502)"
           x="475.63913"
           xml:space="preserve"
           y="461.13617"
           sodipodi:linespacing="125%"><tspan
             id="tspan11310"
             style="font-size:199.20176697px;font-style:normal;font-variant:normal;font-weight:normal;font-stretch:normal;text-align:start;line-height:125%;writing-mode:lr-tb;text-anchor:start;fill:#ffffff;fill-opacity:1;font-family:Arial Black;-inkscape-font-specification:'Arial Black,'"
             x="475.63913"
             y="461.13617" /></text>
      </g>
    </clipPath>
    <linearGradient
       inkscape:collect="always"
       xlink:href="#linearGradient2555"
       id="linearGradient11312"
       gradientUnits="userSpaceOnUse"
       gradientTransform="matrix(-0.5914583,0,0,0.5914584,210.0216,142.2324)"
       x1="-344.15295"
       y1="274.711"
       x2="-395.84943"
       y2="425.39993" />
    <clipPath
       clipPathUnits="userSpaceOnUse"
       id="clipPath11314">
      <g
         id="g11316"
         transform="matrix(0.408497,0,0,0.40852881,-76.919233,-54.344378)">
        <rect
           height="234.98955"
           id="rect11318"
           rx="35.487503"
           ry="35.487503"
           style="fill:#1d8cb5;fill-opacity:1;fill-rule:evenodd;stroke:none"
           transform="scale(-1,1)"
           width="235.00784"
           x="-619.14587"
           y="328.84921" />
        <path
           d="m 557.05665,338.89518 -110.82944,0 c -29.33688,0 -52.95465,23.80974 -52.95465,53.38507 l 0,108.12736 c 0.9496,23.08605 4.60229,8.49154 11.55502,-17.07471 8.08056,-29.71315 34.39648,-55.68287 66.44461,-75.1457 24.46133,-14.85525 51.84109,-24.34125 101.67955,-25.24367 28.26482,-0.51176 25.7695,-36.68291 -15.89509,-44.04835 z"
           id="path11320"
           style="opacity:0.7811159;fill:url(#linearGradient11326);fill-opacity:1;fill-rule:evenodd;stroke:none"
           inkscape:connector-curvature="0" />
        <text
           id="text11322"
           style="font-size:89.64079285px;font-style:normal;font-variant:normal;font-weight:normal;font-stretch:normal;line-height:125%;fill:#ffffff;fill-opacity:1;stroke:none;font-family:Arial;-inkscape-font-specification:Arial"
           transform="scale(0.87692359,1.1403502)"
           x="475.63913"
           xml:space="preserve"
           y="461.13617"
           sodipodi:linespacing="125%"><tspan
             id="tspan11324"
             style="font-size:199.20176697px;font-style:normal;font-variant:normal;font-weight:normal;font-stretch:normal;text-align:start;line-height:125%;writing-mode:lr-tb;text-anchor:start;fill:#ffffff;fill-opacity:1;font-family:Arial Black;-inkscape-font-specification:'Arial Black,'"
             x="475.63913"
             y="461.13617" /></text>
      </g>
    </clipPath>
    <linearGradient
       inkscape:collect="always"
       xlink:href="#linearGradient2555"
       id="linearGradient11326"
       gradientUnits="userSpaceOnUse"
       gradientTransform="matrix(-0.5914583,0,0,0.5914584,210.0216,142.2324)"
       x1="-344.15295"
       y1="274.711"
       x2="-395.84943"
       y2="425.39993" />
    <clipPath
       clipPathUnits="userSpaceOnUse"
       id="clipPath11328">
      <g
         id="g11330"
         transform="matrix(0.408497,0,0,0.40852881,-76.919233,-54.344378)">
        <rect
           height="234.98955"
           id="rect11332"
           rx="35.487503"
           ry="35.487503"
           style="fill:#1d8cb5;fill-opacity:1;fill-rule:evenodd;stroke:none"
           transform="scale(-1,1)"
           width="235.00784"
           x="-619.14587"
           y="328.84921" />
        <path
           d="m 557.05665,338.89518 -110.82944,0 c -29.33688,0 -52.95465,23.80974 -52.95465,53.38507 l 0,108.12736 c 0.9496,23.08605 4.60229,8.49154 11.55502,-17.07471 8.08056,-29.71315 34.39648,-55.68287 66.44461,-75.1457 24.46133,-14.85525 51.84109,-24.34125 101.67955,-25.24367 28.26482,-0.51176 25.7695,-36.68291 -15.89509,-44.04835 z"
           id="path11334"
           style="opacity:0.7811159;fill:url(#linearGradient11340);fill-opacity:1;fill-rule:evenodd;stroke:none"
           inkscape:connector-curvature="0" />
        <text
           id="text11336"
           style="font-size:89.64079285px;font-style:normal;font-variant:normal;font-weight:normal;font-stretch:normal;line-height:125%;fill:#ffffff;fill-opacity:1;stroke:none;font-family:Arial;-inkscape-font-specification:Arial"
           transform="scale(0.87692359,1.1403502)"
           x="475.63913"
           xml:space="preserve"
           y="461.13617"
           sodipodi:linespacing="125%"><tspan
             id="tspan11338"
             style="font-size:199.20176697px;font-style:normal;font-variant:normal;font-weight:normal;font-stretch:normal;text-align:start;line-height:125%;writing-mode:lr-tb;text-anchor:start;fill:#ffffff;fill-opacity:1;font-family:Arial Black;-inkscape-font-specification:'Arial Black,'"
             x="475.63913"
             y="461.13617" /></text>
      </g>
    </clipPath>
    <linearGradient
       inkscape:collect="always"
       xlink:href="#linearGradient2555"
       id="linearGradient11340"
       gradientUnits="userSpaceOnUse"
       gradientTransform="matrix(-0.5914583,0,0,0.5914584,210.0216,142.2324)"
       x1="-344.15295"
       y1="274.711"
       x2="-395.84943"
       y2="425.39993" />
    <clipPath
       clipPathUnits="userSpaceOnUse"
       id="clipPath11342">
      <g
         id="g11344"
         transform="matrix(0.408497,0,0,0.40852881,-76.919233,-54.344378)">
        <rect
           height="234.98955"
           id="rect11346"
           rx="35.487503"
           ry="35.487503"
           style="fill:#1d8cb5;fill-opacity:1;fill-rule:evenodd;stroke:none"
           transform="scale(-1,1)"
           width="235.00784"
           x="-619.14587"
           y="328.84921" />
        <path
           d="m 557.05665,338.89518 -110.82944,0 c -29.33688,0 -52.95465,23.80974 -52.95465,53.38507 l 0,108.12736 c 0.9496,23.08605 4.60229,8.49154 11.55502,-17.07471 8.08056,-29.71315 34.39648,-55.68287 66.44461,-75.1457 24.46133,-14.85525 51.84109,-24.34125 101.67955,-25.24367 28.26482,-0.51176 25.7695,-36.68291 -15.89509,-44.04835 z"
           id="path11348"
           style="opacity:0.7811159;fill:url(#linearGradient11354);fill-opacity:1;fill-rule:evenodd;stroke:none"
           inkscape:connector-curvature="0" />
        <text
           id="text11350"
           style="font-size:89.64079285px;font-style:normal;font-variant:normal;font-weight:normal;font-stretch:normal;line-height:125%;fill:#ffffff;fill-opacity:1;stroke:none;font-family:Arial;-inkscape-font-specification:Arial"
           transform="scale(0.87692359,1.1403502)"
           x="475.63913"
           xml:space="preserve"
           y="461.13617"
           sodipodi:linespacing="125%"><tspan
             id="tspan11352"
             style="font-size:199.20176697px;font-style:normal;font-variant:normal;font-weight:normal;font-stretch:normal;text-align:start;line-height:125%;writing-mode:lr-tb;text-anchor:start;fill:#ffffff;fill-opacity:1;font-family:Arial Black;-inkscape-font-specification:'Arial Black,'"
             x="475.63913"
             y="461.13617" /></text>
      </g>
    </clipPath>
    <linearGradient
       inkscape:collect="always"
       xlink:href="#linearGradient2555"
       id="linearGradient11354"
       gradientUnits="userSpaceOnUse"
       gradientTransform="matrix(-0.5914583,0,0,0.5914584,210.0216,142.2324)"
       x1="-344.15295"
       y1="274.711"
       x2="-395.84943"
       y2="425.39993" />
    <clipPath
       clipPathUnits="userSpaceOnUse"
       id="clipPath11356">
      <g
         id="g11358"
         transform="matrix(0.408497,0,0,0.40852881,-76.919233,-54.344378)">
        <rect
           height="234.98955"
           id="rect11360"
           rx="35.487503"
           ry="35.487503"
           style="fill:#1d8cb5;fill-opacity:1;fill-rule:evenodd;stroke:none"
           transform="scale(-1,1)"
           width="235.00784"
           x="-619.14587"
           y="328.84921" />
        <path
           d="m 557.05665,338.89518 -110.82944,0 c -29.33688,0 -52.95465,23.80974 -52.95465,53.38507 l 0,108.12736 c 0.9496,23.08605 4.60229,8.49154 11.55502,-17.07471 8.08056,-29.71315 34.39648,-55.68287 66.44461,-75.1457 24.46133,-14.85525 51.84109,-24.34125 101.67955,-25.24367 28.26482,-0.51176 25.7695,-36.68291 -15.89509,-44.04835 z"
           id="path11362"
           style="opacity:0.7811159;fill:url(#linearGradient11368);fill-opacity:1;fill-rule:evenodd;stroke:none"
           inkscape:connector-curvature="0" />
        <text
           id="text11364"
           style="font-size:89.64079285px;font-style:normal;font-variant:normal;font-weight:normal;font-stretch:normal;line-height:125%;fill:#ffffff;fill-opacity:1;stroke:none;font-family:Arial;-inkscape-font-specification:Arial"
           transform="scale(0.87692359,1.1403502)"
           x="475.63913"
           xml:space="preserve"
           y="461.13617"
           sodipodi:linespacing="125%"><tspan
             id="tspan11366"
             style="font-size:199.20176697px;font-style:normal;font-variant:normal;font-weight:normal;font-stretch:normal;text-align:start;line-height:125%;writing-mode:lr-tb;text-anchor:start;fill:#ffffff;fill-opacity:1;font-family:Arial Black;-inkscape-font-specification:'Arial Black,'"
             x="475.63913"
             y="461.13617" /></text>
      </g>
    </clipPath>
    <linearGradient
       inkscape:collect="always"
       xlink:href="#linearGradient2555"
       id="linearGradient11368"
       gradientUnits="userSpaceOnUse"
       gradientTransform="matrix(-0.5914583,0,0,0.5914584,210.0216,142.2324)"
       x1="-344.15295"
       y1="274.711"
       x2="-395.84943"
       y2="425.39993" />
    <clipPath
       clipPathUnits="userSpaceOnUse"
       id="clipPath11370">
      <g
         id="g11372"
         transform="matrix(0.408497,0,0,0.40852881,-76.919233,-54.344378)">
        <rect
           height="234.98955"
           id="rect11374"
           rx="35.487503"
           ry="35.487503"
           style="fill:#1d8cb5;fill-opacity:1;fill-rule:evenodd;stroke:none"
           transform="scale(-1,1)"
           width="235.00784"
           x="-619.14587"
           y="328.84921" />
        <path
           d="m 557.05665,338.89518 -110.82944,0 c -29.33688,0 -52.95465,23.80974 -52.95465,53.38507 l 0,108.12736 c 0.9496,23.08605 4.60229,8.49154 11.55502,-17.07471 8.08056,-29.71315 34.39648,-55.68287 66.44461,-75.1457 24.46133,-14.85525 51.84109,-24.34125 101.67955,-25.24367 28.26482,-0.51176 25.7695,-36.68291 -15.89509,-44.04835 z"
           id="path11376"
           style="opacity:0.7811159;fill:url(#linearGradient11382);fill-opacity:1;fill-rule:evenodd;stroke:none"
           inkscape:connector-curvature="0" />
        <text
           id="text11378"
           style="font-size:89.64079285px;font-style:normal;font-variant:normal;font-weight:normal;font-stretch:normal;line-height:125%;fill:#ffffff;fill-opacity:1;stroke:none;font-family:Arial;-inkscape-font-specification:Arial"
           transform="scale(0.87692359,1.1403502)"
           x="475.63913"
           xml:space="preserve"
           y="461.13617"
           sodipodi:linespacing="125%"><tspan
             id="tspan11380"
             style="font-size:199.20176697px;font-style:normal;font-variant:normal;font-weight:normal;font-stretch:normal;text-align:start;line-height:125%;writing-mode:lr-tb;text-anchor:start;fill:#ffffff;fill-opacity:1;font-family:Arial Black;-inkscape-font-specification:'Arial Black,'"
             x="475.63913"
             y="461.13617" /></text>
      </g>
    </clipPath>
    <linearGradient
       inkscape:collect="always"
       xlink:href="#linearGradient2555"
       id="linearGradient11382"
       gradientUnits="userSpaceOnUse"
       gradientTransform="matrix(-0.5914583,0,0,0.5914584,210.0216,142.2324)"
       x1="-344.15295"
       y1="274.711"
       x2="-395.84943"
       y2="425.39993" />
    <clipPath
       clipPathUnits="userSpaceOnUse"
       id="clipPath11384">
      <g
         id="g11386"
         transform="matrix(0.408497,0,0,0.40852881,-76.919233,-54.344378)">
        <rect
           height="234.98955"
           id="rect11388"
           rx="35.487503"
           ry="35.487503"
           style="fill:#1d8cb5;fill-opacity:1;fill-rule:evenodd;stroke:none"
           transform="scale(-1,1)"
           width="235.00784"
           x="-619.14587"
           y="328.84921" />
        <path
           d="m 557.05665,338.89518 -110.82944,0 c -29.33688,0 -52.95465,23.80974 -52.95465,53.38507 l 0,108.12736 c 0.9496,23.08605 4.60229,8.49154 11.55502,-17.07471 8.08056,-29.71315 34.39648,-55.68287 66.44461,-75.1457 24.46133,-14.85525 51.84109,-24.34125 101.67955,-25.24367 28.26482,-0.51176 25.7695,-36.68291 -15.89509,-44.04835 z"
           id="path11390"
           style="opacity:0.7811159;fill:url(#linearGradient11396);fill-opacity:1;fill-rule:evenodd;stroke:none"
           inkscape:connector-curvature="0" />
        <text
           id="text11392"
           style="font-size:89.64079285px;font-style:normal;font-variant:normal;font-weight:normal;font-stretch:normal;line-height:125%;fill:#ffffff;fill-opacity:1;stroke:none;font-family:Arial;-inkscape-font-specification:Arial"
           transform="scale(0.87692359,1.1403502)"
           x="475.63913"
           xml:space="preserve"
           y="461.13617"
           sodipodi:linespacing="125%"><tspan
             id="tspan11394"
             style="font-size:199.20176697px;font-style:normal;font-variant:normal;font-weight:normal;font-stretch:normal;text-align:start;line-height:125%;writing-mode:lr-tb;text-anchor:start;fill:#ffffff;fill-opacity:1;font-family:Arial Black;-inkscape-font-specification:'Arial Black,'"
             x="475.63913"
             y="461.13617" /></text>
      </g>
    </clipPath>
    <linearGradient
       inkscape:collect="always"
       xlink:href="#linearGradient2555"
       id="linearGradient11396"
       gradientUnits="userSpaceOnUse"
       gradientTransform="matrix(-0.5914583,0,0,0.5914584,210.0216,142.2324)"
       x1="-344.15295"
       y1="274.711"
       x2="-395.84943"
       y2="425.39993" />
    <clipPath
       clipPathUnits="userSpaceOnUse"
       id="clipPath11398">
      <g
         id="g11400">
        <rect
           height="234.98955"
           id="rect11402"
           rx="35.487503"
           ry="35.487503"
           style="fill:#1d8cb5;fill-opacity:1;fill-rule:evenodd;stroke:none"
           transform="scale(-1,1)"
           width="235.00784"
           x="-619.14587"
           y="328.84921" />
        <path
           d="m 557.05665,338.89518 -110.82944,0 c -29.33688,0 -52.95465,23.80974 -52.95465,53.38507 l 0,108.12736 c 0.9496,23.08605 4.60229,8.49154 11.55502,-17.07471 8.08056,-29.71315 34.39648,-55.68287 66.44461,-75.1457 24.46133,-14.85525 51.84109,-24.34125 101.67955,-25.24367 28.26482,-0.51176 25.7695,-36.68291 -15.89509,-44.04835 z"
           id="path11404"
           style="opacity:0.7811159;fill:url(#linearGradient11410);fill-opacity:1;fill-rule:evenodd;stroke:none"
           inkscape:connector-curvature="0" />
        <text
           id="text11406"
           style="font-size:89.64079285px;font-style:normal;font-variant:normal;font-weight:normal;font-stretch:normal;line-height:125%;fill:#ffffff;fill-opacity:1;stroke:none;font-family:Arial;-inkscape-font-specification:Arial"
           transform="scale(0.87692359,1.1403502)"
           x="475.63913"
           xml:space="preserve"
           y="461.13617"
           sodipodi:linespacing="125%"><tspan
             id="tspan11408"
             style="font-size:199.20176697px;font-style:normal;font-variant:normal;font-weight:normal;font-stretch:normal;text-align:start;line-height:125%;writing-mode:lr-tb;text-anchor:start;fill:#ffffff;fill-opacity:1;font-family:Arial Black;-inkscape-font-specification:'Arial Black,'"
             x="475.63913"
             y="461.13617" /></text>
      </g>
    </clipPath>
    <linearGradient
       inkscape:collect="always"
       xlink:href="#linearGradient2555"
       id="linearGradient11410"
       gradientUnits="userSpaceOnUse"
       gradientTransform="matrix(-0.5914583,0,0,0.5914584,210.0216,142.2324)"
       x1="-344.15295"
       y1="274.711"
       x2="-395.84943"
       y2="425.39993" />
    <linearGradient
       inkscape:collect="always"
       xlink:href="#linearGradient2555"
       id="linearGradient3893"
       gradientUnits="userSpaceOnUse"
       gradientTransform="matrix(-0.24160894,0,0,0.2416278,8.8739605,3.7616551)"
       x1="-344.15295"
       y1="274.711"
       x2="-395.84943"
       y2="425.39993" />
    <inkscape:path-effect
       is_visible="true"
       id="path-effect4359"
       effect="spiro" />
    <inkscape:perspective
       id="perspective4841"
       inkscape:persp3d-origin="372.04724 : 350.78739 : 1"
       inkscape:vp_z="744.09448 : 526.18109 : 1"
       inkscape:vp_y="0 : 1000 : 0"
       inkscape:vp_x="0 : 526.18109 : 1"
       sodipodi:type="inkscape:persp3d" />
  </defs>
  <text
     id="text5955"
     style="font-size:36.6194191px;font-style:normal;font-variant:normal;font-weight:normal;font-stretch:normal;line-height:125%;fill:#ffffff;fill-opacity:1;stroke:none;font-family:Arial;-inkscape-font-specification:Arial"
     transform="scale(0.87688946,1.1403946)"
     x="106.58645"
     xml:space="preserve"
     y="140.72606"
     sodipodi:linespacing="125%"><tspan
       id="tspan5957"
       style="font-size:81.37649536px;font-style:normal;font-variant:normal;font-weight:normal;font-stretch:normal;text-align:start;line-height:125%;writing-mode:lr-tb;text-anchor:start;fill:#ffffff;fill-opacity:1;font-family:Arial Black;-inkscape-font-specification:'Arial Black,'"
       x="106.58645"
       y="140.72606" /></text>
  <g
     id="g3937">
    <g
       id="g3924">
      <rect
         height="96"
         id="rect1942"
         rx="14.496538"
         ry="14.497667"
         style="fill:#00680a;fill-opacity:1;fill-rule:evenodd;stroke:none"
         transform="scale(-1,1)"
         width="96"
         x="-176"
         y="80" />
      <path
         d="m 150.63674,84.104067 -45.2735,0 c -11.984024,0 -21.631812,9.726964 -21.631812,21.809343 l 0,44.17314 c 0.387909,9.43131 1.880022,3.46904 4.720191,-6.97551 3.300884,-12.13868 14.050861,-22.74806 27.142421,-30.69919 9.99238,-6.06879 21.17693,-9.9441 41.53579,-10.31276 11.5461,-0.20907 10.52677,-14.986029 -6.49309,-17.995023 z"
         id="path1950"
         style="opacity:0.7811159;fill:url(#linearGradient3893);fill-opacity:1;fill-rule:evenodd;stroke:none"
         inkscape:connector-curvature="0" />
      <g
         transform="matrix(10.44959,0,0,10.44959,102.59155,-10841.216)"
         id="layer1"
         inkscape:label="Layer 1">
        <g
           transform="matrix(0.06856451,0,0,0.06856451,-43.931861,1019.9453)"
           id="g6473">
          <path
             style="fill:#aa0000;fill-opacity:1;stroke:none"
             d="m 706.14252,408.4918 c 10.94455,17.17918 6.0912,28.72175 -10.18287,34.46508 -103.41726,16.72188 -40.09485,-87.2055 10.18287,-34.46508 z"
             id="path6453"
             inkscape:connector-curvature="0"
             sodipodi:nodetypes="ccc" />
          <path
             style="fill:#d3bc5f;stroke:none"
             d="m 666.586,444.52348 c -1.96349,9.0565 -4.5531,11.85531 -5.09143,22.32397 -0.53833,10.46866 27.685,11.61631 29.7653,1.17495 -0.54288,-4.31432 0.39189,-3.99757 -8.61627,-23.89057 z"
             id="path6455"
             inkscape:connector-curvature="0"
             sodipodi:nodetypes="czccc" />
          <path
             sodipodi:type="arc"
             style="opacity:0.95;fill:#ffffff;fill-opacity:1;fill-rule:nonzero;stroke:none"
             id="path6457"
             sodipodi:cx="530.4881"
             sodipodi:cy="424.54941"
             sodipodi:rx="4.1123109"
             sodipodi:ry="3.9164865"
             d="m 534.60041,424.54941 c 0,2.16301 -1.84115,3.91648 -4.11231,3.91648 -2.27117,0 -4.11231,-1.75347 -4.11231,-3.91648 0,-2.16302 1.84114,-3.91649 4.11231,-3.91649 2.27116,0 4.11231,1.75347 4.11231,3.91649 z"
             transform="translate(125.71922,-8.2246217)" />
          <path
             transform="matrix(1.7,0,0,1.7,-230.09359,-315.20042)"
             d="m 534.60041,424.54941 c 0,2.16301 -1.84115,3.91648 -4.11231,3.91648 -2.27117,0 -4.11231,-1.75347 -4.11231,-3.91648 0,-2.16302 1.84114,-3.91649 4.11231,-3.91649 2.27116,0 4.11231,1.75347 4.11231,3.91649 z"
             sodipodi:ry="3.9164865"
             sodipodi:rx="4.1123109"
             sodipodi:cy="424.54941"
             sodipodi:cx="530.4881"
             id="path6459"
             style="opacity:0.95;fill:#ffffff;fill-opacity:1;fill-rule:nonzero;stroke:none"
             sodipodi:type="arc" />
          <path
             sodipodi:type="arc"
             style="opacity:0.95;fill:#ffffff;fill-opacity:1;fill-rule:nonzero;stroke:none"
             id="path6461"
             sodipodi:cx="530.4881"
             sodipodi:cy="424.54941"
             sodipodi:rx="4.1123109"
             sodipodi:ry="3.9164865"
             d="m 534.60041,424.54941 c 0,2.16301 -1.84115,3.91648 -4.11231,3.91648 -2.27117,0 -4.11231,-1.75347 -4.11231,-3.91648 0,-2.16302 1.84114,-3.91649 4.11231,-3.91649 2.27116,0 4.11231,1.75347 4.11231,3.91649 z"
             transform="matrix(0.70000001,0,0,0.70000001,287.27427,109.34899)" />
          <path
             transform="matrix(0.70000001,0,0,0.70000001,287.27427,109.34899)"
             d="m 534.60041,424.54941 c 0,2.16301 -1.84115,3.91648 -4.11231,3.91648 -2.27117,0 -4.11231,-1.75347 -4.11231,-3.91648 0,-2.16302 1.84114,-3.91649 4.11231,-3.91649 2.27116,0 4.11231,1.75347 4.11231,3.91649 z"
             sodipodi:ry="3.9164865"
             sodipodi:rx="4.1123109"
             sodipodi:cy="424.54941"
             sodipodi:cx="530.4881"
             id="path6463"
             style="opacity:0.95;fill:#ffffff;fill-opacity:1;fill-rule:nonzero;stroke:none"
             sodipodi:type="arc" />
          <path
             sodipodi:type="arc"
             style="opacity:0.95;fill:#ffffff;fill-opacity:1;fill-rule:nonzero;stroke:none"
             id="path6469"
             sodipodi:cx="530.4881"
             sodipodi:cy="424.54941"
             sodipodi:rx="4.1123109"
             sodipodi:ry="3.9164865"
             d="m 534.60041,424.54941 c 0,2.16301 -1.84115,3.91648 -4.11231,3.91648 -2.27117,0 -4.11231,-1.75347 -4.11231,-3.91648 0,-2.16302 1.84114,-3.91649 4.11231,-3.91649 2.27116,0 4.11231,1.75347 4.11231,3.91649 z"
             transform="matrix(-0.6998708,-0.01344888,0.01344888,-0.6998708,1060.8079,734.81824)" />
        </g>
      </g>
    </g>
  </g>
</svg>
